<svg xmlns="http://www.w3.org/2000/svg" xmlns:xlink="http://www.w3.org/1999/xlink" viewBox="0 0 1920 1080" width="1920" height="1080" preserveAspectRatio="xMidYMid meet" style="width: 100%; height: 100%; transform: translate3d(0px, 0px, 0px); content-visibility: visible;"><defs><clipPath id="__lottie_element_116"><rect width="1920" height="1080" x="0" y="0"></rect></clipPath><radialGradient id="__lottie_element_135" spreadMethod="pad" gradientUnits="userSpaceOnUse" cx="0" cy="0" r="100" fx="0" fy="0"><stop offset="0%" stop-color="rgb(255,255,255)"></stop><stop offset="100%" stop-color="rgb(0,0,0)"></stop></radialGradient><radialGradient id="__lottie_element_136" spreadMethod="pad" gradientUnits="userSpaceOnUse" cx="0" cy="0" r="100" fx="0" fy="0"><stop offset="0%" stop-color="rgb(255,255,255)"></stop><stop offset="100%" stop-color="rgb(0,0,0)"></stop></radialGradient><radialGradient id="__lottie_element_137" spreadMethod="pad" gradientUnits="userSpaceOnUse" cx="0" cy="0" r="100" fx="0" fy="0"><stop offset="0%" stop-color="rgb(255,255,255)"></stop><stop offset="100%" stop-color="rgb(0,0,0)"></stop></radialGradient><radialGradient id="__lottie_element_138" spreadMethod="pad" gradientUnits="userSpaceOnUse" cx="0" cy="0" r="100" fx="0" fy="0"><stop offset="0%" stop-color="rgb(255,255,255)"></stop><stop offset="100%" stop-color="rgb(0,0,0)"></stop></radialGradient><radialGradient id="__lottie_element_139" spreadMethod="pad" gradientUnits="userSpaceOnUse" cx="0" cy="0" r="100" fx="0" fy="0"><stop offset="0%" stop-color="rgb(255,255,255)"></stop><stop offset="100%" stop-color="rgb(0,0,0)"></stop></radialGradient><radialGradient id="__lottie_element_140" spreadMethod="pad" gradientUnits="userSpaceOnUse" cx="0" cy="0" r="100" fx="0" fy="0"><stop offset="0%" stop-color="rgb(255,255,255)"></stop><stop offset="100%" stop-color="rgb(0,0,0)"></stop></radialGradient><radialGradient id="__lottie_element_141" spreadMethod="pad" gradientUnits="userSpaceOnUse" cx="0" cy="0" r="100" fx="0" fy="0"><stop offset="0%" stop-color="rgb(255,255,255)"></stop><stop offset="100%" stop-color="rgb(0,0,0)"></stop></radialGradient></defs><g clip-path="url(#__lottie_element_116)"><g transform="matrix(0.8421099781990051,0,0,1,926,540)" opacity="1" style="display: block;"><g opacity="1" transform="matrix(1,0,0,1,34,30)"><path fill="rgb(255,255,255)" fill-opacity="1" d=" M490,-206 C490,-206 490,206 490,206 C490,217.03799438476562 481.0379943847656,226 470,226 C470,226 -470,226 -470,226 C-481.0379943847656,226 -490,217.03799438476562 -490,206 C-490,206 -490,-206 -490,-206 C-490,-217.03799438476562 -481.0379943847656,-226 -470,-226 C-470,-226 470,-226 470,-226 C481.0379943847656,-226 490,-217.03799438476562 490,-206z"></path><path stroke-linecap="butt" stroke-linejoin="miter" fill-opacity="0" stroke-miterlimit="4" stroke="rgb(10,10,10)" stroke-opacity="1" stroke-width="12" d=" M490,-206 C490,-206 490,206 490,206 C490,217.03799438476562 481.0379943847656,226 470,226 C470,226 -470,226 -470,226 C-481.0379943847656,226 -490,217.03799438476562 -490,206 C-490,206 -490,-206 -490,-206 C-490,-217.03799438476562 -481.0379943847656,-226 -470,-226 C-470,-226 470,-226 470,-226 C481.0379943847656,-226 490,-217.03799438476562 490,-206z"></path></g></g><g transform="matrix(1,0,0,1,1153.7919921875,69.91999053955078)" opacity="1" style="display: block;"><g opacity="1" transform="matrix(0.8118084669113159,0.5839238166809082,-0.5839238166809082,0.8118084669113159,66.68699645996094,664.3790283203125)"><path fill="rgb(102,0,255)" fill-opacity="1" d=" M70.00700378417969,-22.694000244140625 C70.00700378417969,-22.694000244140625 -44.11399841308594,58.904998779296875 -44.11399841308594,58.904998779296875 C-54.073001861572266,66.0250015258789 -68.0459976196289,63.70199966430664 -75.16699981689453,53.74399948120117 C-82.28700256347656,43.7859992980957 -79.96499633789062,29.812999725341797 -70.00700378417969,22.69300079345703 C-70.00700378417969,22.69300079345703 44.1150016784668,-58.90599822998047 44.1150016784668,-58.90599822998047 C54.073001861572266,-66.0260009765625 68.0469970703125,-63.702999114990234 75.16699981689453,-53.744998931884766 C82.28700256347656,-43.7869987487793 79.96499633789062,-29.81399917602539 70.00700378417969,-22.694000244140625z"></path></g><g opacity="1" transform="matrix(0.5767460465431213,-0.8169234991073608,0.8169234991073608,0.5767460465431213,-280.1260070800781,732.322998046875)"><path fill="rgb(102,0,255)" fill-opacity="1" d=" M212.4669952392578,-175.5 C212.4669952392578,-175.5 93.11599731445312,-346.4259948730469 93.11599731445312,-346.4259948730469 C82.70099639892578,-361.34100341796875 82.36499786376953,-379.3190002441406 92.36799621582031,-386.3760070800781 C102.37100219726562,-393.4330139160156 119.07599639892578,-387.0050048828125 129.49000549316406,-372.0899963378906 C129.49000549316406,-372.0899963378906 248.84100341796875,-201.1649932861328 248.84100341796875,-201.1649932861328 C259.2550048828125,-186.25 259.5929870605469,-168.27200317382812 249.58999633789062,-161.21499633789062 C239.58700561523438,-154.1580047607422 222.88099670410156,-160.58599853515625 212.4669952392578,-175.5z"></path></g><g opacity="1" transform="matrix(0.8131617307662964,0.5820378065109253,-0.5820378065109253,0.8131617307662964,-443.9787292480469,504.27569580078125)"><path fill="rgb(102,0,255)" fill-opacity="1" d=" M70.00700378417969,-22.69300079345703 C70.00700378417969,-22.69300079345703 -44.1150016784668,58.904998779296875 -44.1150016784668,58.904998779296875 C-54.073001861572266,66.0250015258789 -68.0459976196289,63.702999114990234 -75.16600036621094,53.744998931884766 C-75.16600036621094,53.744998931884766 -75.16699981689453,53.744998931884766 -75.16699981689453,53.744998931884766 C-82.28700256347656,43.7869987487793 -79.96499633789062,29.81399917602539 -70.00700378417969,22.69300079345703 C-70.00700378417969,22.69300079345703 44.1150016784668,-58.904998779296875 44.1150016784668,-58.904998779296875 C54.073001861572266,-66.0260009765625 68.0469970703125,-63.70199966430664 75.16699981689453,-53.74399948120117 C82.28700256347656,-43.7859992980957 79.96499633789062,-29.81399917602539 70.00700378417969,-22.69300079345703z"></path></g><g opacity="1" transform="matrix(0.8139634728431702,0.5809160470962524,-0.5809160470962524,0.8139634728431702,-447.4639892578125,365.0459899902344)"><path fill="rgb(102,0,255)" fill-opacity="1" d=" M70.00700378417969,-22.694000244140625 C70.00700378417969,-22.694000244140625 -44.11600112915039,58.904998779296875 -44.11600112915039,58.904998779296875 C-54.07400131225586,66.0250015258789 -68.0469970703125,63.702999114990234 -75.16699981689453,53.74399948120117 C-82.28700256347656,43.7859992980957 -79.96600341796875,29.812999725341797 -70.00800323486328,22.69300079345703 C-70.00800323486328,22.69300079345703 44.1150016784668,-58.904998779296875 44.1150016784668,-58.904998779296875 C54.073001861572266,-66.0260009765625 68.0459976196289,-63.702999114990234 75.16600036621094,-53.744998931884766 C82.28600311279297,-43.7859992980957 79.96499633789062,-29.81399917602539 70.00700378417969,-22.694000244140625z"></path></g><g opacity="1" transform="matrix(1,0,0,1,-185.97900390625,613.0460205078125)"><path fill="rgb(102,0,255)" fill-opacity="1" d="M0 0"></path></g></g><g transform="matrix(1,0,0,1,1153.7919921875,69.91999053955078)" opacity="1" style="display: block;"><g opacity="1" transform="matrix(0.8107370138168335,0.5854105949401855,-0.5854105949401855,0.8107370138168335,66.68699645996094,622.3790283203125)"><path fill="rgb(102,0,255)" fill-opacity="1" d=" M70.00700378417969,-22.694000244140625 C70.00700378417969,-22.694000244140625 -44.11399841308594,58.904998779296875 -44.11399841308594,58.904998779296875 C-54.073001861572266,66.0250015258789 -68.0459976196289,63.70199966430664 -75.16699981689453,53.74399948120117 C-82.28700256347656,43.7859992980957 -79.96499633789062,29.812999725341797 -70.00700378417969,22.69300079345703 C-70.00700378417969,22.69300079345703 44.1150016784668,-58.90599822998047 44.1150016784668,-58.90599822998047 C54.073001861572266,-66.0260009765625 68.0469970703125,-63.702999114990234 75.16699981689453,-53.744998931884766 C82.28700256347656,-43.7869987487793 79.96499633789062,-29.81399917602539 70.00700378417969,-22.694000244140625z"></path></g><g opacity="1" transform="matrix(0.8065787553787231,0.5911266803741455,-0.5911266803741455,0.8065787553787231,67.02100372314453,363.0459899902344)"><path fill="rgb(102,0,255)" fill-opacity="1" d=" M70.00700378417969,-22.694000244140625 C70.00700378417969,-22.694000244140625 -44.1150016784668,58.904998779296875 -44.1150016784668,58.904998779296875 C-54.073001861572266,66.0250015258789 -68.0469970703125,63.702999114990234 -75.16699981689453,53.74399948120117 C-82.28700256347656,43.7859992980957 -79.96499633789062,29.812999725341797 -70.00599670410156,22.69300079345703 C-70.00599670410156,22.69300079345703 44.1150016784668,-58.904998779296875 44.1150016784668,-58.904998779296875 C54.073001861572266,-66.0260009765625 68.0469970703125,-63.702999114990234 75.16699981689453,-53.744998931884766 C82.28700256347656,-43.7859992980957 79.96600341796875,-29.81399917602539 70.00700378417969,-22.694000244140625z"></path></g></g><g transform="matrix(1.3425402641296387,-0.669018566608429,0.669018566608429,1.3425402641296387,467.3140869140625,452.545654296875)" opacity="1" style="display: block;"><g opacity="1" transform="matrix(1,0,0,1,82.53700256347656,66.2760009765625)"><path fill="rgb(112,112,112)" fill-opacity="1" d=" M70.00700378417969,-22.694000244140625 C70.00700378417969,-22.694000244140625 -44.1150016784668,58.904998779296875 -44.1150016784668,58.904998779296875 C-54.073001861572266,66.0250015258789 -68.0459976196289,63.702999114990234 -75.16600036621094,53.744998931884766 C-75.16600036621094,53.744998931884766 -75.16699981689453,53.744998931884766 -75.16699981689453,53.744998931884766 C-82.28700256347656,43.7869987487793 -79.96499633789062,29.81399917602539 -70.00700378417969,22.694000244140625 C-70.00700378417969,22.694000244140625 44.1150016784668,-58.904998779296875 44.1150016784668,-58.904998779296875 C54.073001861572266,-66.0250015258789 68.0469970703125,-63.702999114990234 75.16699981689453,-53.744998931884766 C82.28700256347656,-43.7859992980957 79.96499633789062,-29.81399917602539 70.00700378417969,-22.694000244140625z"></path></g></g><g transform="matrix(1.3930014371871948,0.5563694834709167,-0.5563694834709167,1.3930014371871948,549.3532104492188,526.8267822265625)" opacity="1" style="display: block;"><g opacity="1" transform="matrix(1,0,0,1,58.56100082397461,128.98599243164062)"><path fill="rgb(112,112,112)" fill-opacity="1" d=" M-12.184000015258789,-110.61199951171875 C-12.184000015258789,-110.61199951171875 54.56399917602539,96.98600006103516 54.56399917602539,96.98600006103516 C58.31100082397461,108.63999938964844 51.84000015258789,121.24199676513672 40.18600082397461,124.98899841308594 C28.5310001373291,128.73599243164062 15.930999755859375,122.26599884033203 12.184000015258789,110.61199951171875 C12.184000015258789,110.61199951171875 -54.56399917602539,-96.98699951171875 -54.56399917602539,-96.98699951171875 C-58.31100082397461,-108.64099884033203 -51.840999603271484,-121.24199676513672 -40.1870002746582,-124.98899841308594 C-28.533000946044922,-128.73599243164062 -15.932000160217285,-122.26599884033203 -12.184000015258789,-110.61199951171875z"></path></g></g><g transform="matrix(0.6923952102661133,-1.3306348323822021,1.3306348323822021,0.6923952102661133,627.3826904296875,411.9644470214844)" opacity="1" style="display: block;"><g opacity="1" transform="matrix(1,0,0,1,77.96499633789062,67.87000274658203)"><path fill="rgb(112,112,112)" fill-opacity="1" d=" M71.11499786376953,59.790000915527344 C66.7249984741211,64.95999908447266 60.435001373291016,67.62000274658203 54.1150016784668,67.62000274658203 C52.60499954223633,67.62000274658203 51.10499954223633,67.47000122070312 49.6150016784668,67.15899658203125 C46.07500076293945,66.43900299072266 42.67499923706055,64.8499984741211 39.744998931884766,62.35900115966797 C39.744998931884766,62.35900115966797 -67.2249984741211,-28.420000076293945 -67.2249984741211,-28.420000076293945 C-76.55500030517578,-36.34000015258789 -77.71499633789062,-50.459999084472656 -69.79499816894531,-59.79100036621094 C-65.40499877929688,-64.95999908447266 -59.125,-67.62000274658203 -52.79499816894531,-67.62000274658203 C-47.70500183105469,-67.62000274658203 -42.584999084472656,-65.89099884033203 -38.415000915527344,-62.36000061035156 C-38.415000915527344,-62.36000061035156 68.54499816894531,28.40999984741211 68.54499816894531,28.40999984741211 C71.48500061035156,30.89900016784668 73.6050033569336,34.0099983215332 74.90499877929688,37.38999938964844 C77.71499633789062,44.75 76.54499816894531,53.38999938964844 71.11499786376953,59.790000915527344z"></path></g></g><g transform="matrix(0.8632304668426514,1.22671639919281,-1.22671639919281,0.8632304668426514,890.5838012695312,264.60723876953125)" opacity="1" style="display: block;"><g opacity="1" transform="matrix(1,0,0,1,56.61000061035156,53.38999938964844)"><path fill="rgb(9,9,9)" fill-opacity="1" d=" M55.209999084472656,51.29999923706055 C54.060001373291016,52.56999969482422 52.09000015258789,52.66899871826172 50.810001373291016,51.5099983215332 C50.810001373291016,51.5099983215332 13.550000190734863,17.719999313354492 13.550000190734863,17.719999313354492 C10.350000381469727,19.368999481201172 6.309999942779541,18.958999633789062 3.5,16.409000396728516 C3.5,16.409000396728516 -11.34000015258789,2.9489998817443848 -11.34000015258789,2.9489998817443848 C-11.34000015258789,2.9489998817443848 -11.949999809265137,3.61899995803833 -11.949999809265137,3.61899995803833 C-12.430000305175781,4.150000095367432 -12.9399995803833,4.629000186920166 -13.5,5.050000190734863 C-13.289999961853027,5.730000019073486 -13.180000305175781,6.440000057220459 -13.149999618530273,7.150000095367432 C-13.029999732971191,9.569999694824219 -13.829999923706055,12.029000282287598 -15.579999923706055,13.958999633789062 C-15.899999618530273,14.3100004196167 -16.229999542236328,14.628999710083008 -16.579999923706055,14.909000396728516 C-16.579999923706055,14.909000396728516 -3.9000000953674316,42.43000030517578 -3.9000000953674316,42.43000030517578 C-3.5799999237060547,42.38999938964844 -3.25,42.41899871826172 -2.9100000858306885,42.5099983215332 C-2.9100000858306885,42.5099983215332 12.609999656677246,46.689998626708984 12.609999656677246,46.689998626708984 C14.260000228881836,47.12900161743164 15.25,48.8390007019043 14.8100004196167,50.499000549316406 C14.359999656677246,52.150001525878906 12.649999618530273,53.13999938964844 11,52.689998626708984 C11,52.689998626708984 -3.5399999618530273,48.78900146484375 -3.5399999618530273,48.78900146484375 C-3.690000057220459,48.88999938964844 -3.8399999141693115,48.98899841308594 -4.019999980926514,49.06999969482422 C-5.46999979019165,49.73899841308594 -7.179999828338623,49.099998474121094 -7.849999904632568,47.659000396728516 C-7.849999904632568,47.659000396728516 -21.969999313354492,17.020000457763672 -21.969999313354492,17.020000457763672 C-24.43000030517578,17.18000030517578 -26.959999084472656,16.378999710083008 -28.920000076293945,14.600000381469727 C-30.850000381469727,12.859999656677246 -31.889999389648438,10.479999542236328 -32,8.069999694824219 C-32.099998474121094,6.158999919891357 -31.6200008392334,4.230000019073486 -30.549999237060547,2.549999952316284 C-31.920000076293945,0.6499999761581421 -32.66999816894531,-1.590999960899353 -32.779998779296875,-3.8499999046325684 C-32.86000061035156,-5.489999771118164 -32.61000061035156,-7.139999866485596 -32.02000045776367,-8.699999809265137 C-32.279998779296875,-8.680000305175781 -32.54999923706055,-8.680000305175781 -32.81999969482422,-8.680000305175781 C-37.90999984741211,-8.680000305175781 -43.029998779296875,-10.41100025177002 -47.189998626708984,-13.9399995803833 C-50.130001068115234,-16.43000030517578 -52.25,-19.541000366210938 -53.54999923706055,-22.910999298095703 C-56.36000061035156,-30.270000457763672 -55.189998626708984,-38.9109992980957 -49.7599983215332,-45.310001373291016 C-45.369998931884766,-50.47999954223633 -39.09000015258789,-53.13999938964844 -32.77000045776367,-53.13999938964844 C-31.260000228881836,-53.13999938964844 -29.75,-52.99100112915039 -28.260000228881836,-52.68000030517578 C-24.719999313354492,-51.96099853515625 -21.31999969482422,-50.36000061035156 -18.389999389648438,-47.88100051879883 C-13.220000267028809,-43.4900016784668 -10.5600004196167,-37.20000076293945 -10.5600004196167,-30.881000518798828 C-10.5600004196167,-30.770000457763672 -10.5600004196167,-30.660999298095703 -10.569999694824219,-30.551000595092773 C-6.820000171661377,-31.489999771118164 -2.680000066757202,-30.600000381469727 0.3799999952316284,-27.81999969482422 C2.819999933242798,-25.610000610351562 4.130000114440918,-22.590999603271484 4.289999961853027,-19.520000457763672 C4.440000057220459,-16.461000442504883 3.4200000762939453,-13.331000328063965 1.2100000381469727,-10.890000343322754 C1.2100000381469727,-10.890000343322754 0.6000000238418579,-10.220999717712402 0.6000000238418579,-10.220999717712402 C0.6000000238418579,-10.220999717712402 15.4399995803833,3.239000082015991 15.4399995803833,3.239000082015991 C17.260000228881836,4.879000186920166 18.229999542236328,7.11899995803833 18.34000015258789,9.390000343322754 C18.399999618530273,10.649999618530273 18.190000534057617,11.918999671936035 17.729999542236328,13.119000434875488 C17.729999542236328,13.119000434875488 54.9900016784668,46.900001525878906 54.9900016784668,46.900001525878906 C56.2599983215332,48.060001373291016 56.36000061035156,50.03900146484375 55.209999084472656,51.29999923706055z"></path></g></g><g transform="matrix(1.1147172451019287,1.0036959648132324,-1.0036959648132324,1.1147172451019287,1588.9462890625,615.8369750976562)" opacity="1" style="display: block;"><g opacity="1" transform="matrix(1,0,0,1,47.90999984741211,131.1230010986328)"><path fill="rgb(112,112,112)" fill-opacity="1" d=" M45.04499816894531,-101.75700378417969 C45.04499816894531,-101.75700378417969 -1.555999994277954,111.2699966430664 -1.555999994277954,111.2699966430664 C-4.171999931335449,123.22899627685547 -16.099000930786133,130.8730010986328 -28.058000564575195,128.2570037841797 C-40.016998291015625,125.63999938964844 -47.6609992980957,113.71700286865234 -45.04499816894531,101.75700378417969 C-45.04499816894531,101.75700378417969 1.555999994277954,-111.2699966430664 1.555999994277954,-111.2699966430664 C4.171999931335449,-123.22899627685547 16.097999572753906,-130.8730010986328 28.058000564575195,-128.2570037841797 C40.016998291015625,-125.64099884033203 47.6609992980957,-113.71600341796875 45.04499816894531,-101.75700378417969z"></path></g></g><g transform="matrix(0.7042073011398315,1.3244214057922363,-1.3244214057922363,0.7042073011398315,1618.1956787109375,458.4688720703125)" opacity="1" style="display: block;"><g opacity="1" transform="matrix(1,0,0,1,91.94999694824219,46.724998474121094)"><path fill="rgb(112,112,112)" fill-opacity="1" d=" M59.926998138427734,42.71699905395508 C59.926998138427734,42.71699905395508 -73.59300231933594,-0.3499999940395355 -73.59300231933594,-0.3499999940395355 C-85.24299621582031,-4.107999801635742 -91.70099639892578,-16.715999603271484 -87.94300079345703,-28.365999221801758 C-84.18499755859375,-40.016998291015625 -71.5780029296875,-46.474998474121094 -59.926998138427734,-42.71699905395508 C-59.926998138427734,-42.71699905395508 73.59200286865234,0.3499999940395355 73.59200286865234,0.3499999940395355 C85.24199676513672,4.107999801635742 91.69999694824219,16.715999603271484 87.94300079345703,28.365999221801758 C84.18499755859375,40.016998291015625 71.5780029296875,46.474998474121094 59.926998138427734,42.71699905395508z"></path></g></g><g transform="matrix(0.026178589090704918,1.4997715950012207,-1.4997715950012207,0.026178589090704918,1636.397216796875,368.9417724609375)" opacity="1" style="display: block;"><g opacity="1" transform="matrix(1,0,0,1,60.71900177001953,86.3949966430664)"><path fill="rgb(112,112,112)" fill-opacity="1" d=" M-54.3489990234375,49.619998931884766 C-54.3489990234375,49.619998931884766 15.79699993133545,-71.87699890136719 15.79699993133545,-71.87699890136719 C21.91900062561035,-82.47899627685547 35.60100173950195,-86.1449966430664 46.202999114990234,-80.0250015258789 C46.202999114990234,-80.0250015258789 46.202999114990234,-80.02400207519531 46.202999114990234,-80.02400207519531 C56.80400085449219,-73.90299987792969 60.470001220703125,-60.22100067138672 54.349998474121094,-49.61899948120117 C54.349998474121094,-49.61899948120117 -15.795999526977539,71.87799835205078 -15.795999526977539,71.87799835205078 C-21.91699981689453,82.47899627685547 -35.599998474121094,86.1449966430664 -46.20199966430664,80.0250015258789 C-46.20199966430664,80.0250015258789 -46.20199966430664,80.02400207519531 -46.20199966430664,80.02400207519531 C-56.803001403808594,73.90399932861328 -60.46900177001953,60.22200012207031 -54.3489990234375,49.619998931884766z"></path></g></g><g transform="matrix(1.097030520439148,1.0229976177215576,-1.0229976177215576,1.097030520439148,1412.1876220703125,353.214599609375)" opacity="1" style="display: block;"><g opacity="1" transform="matrix(1,0,0,1,27.320999145507812,27.320999145507812)"><path fill="rgb(9,9,9)" fill-opacity="1" d=" M-15.638999938964844,-18.156999588012695 C-15.638999938964844,-18.156999588012695 -14.654000282287598,-18.961999893188477 -14.654000282287598,-18.961999893188477 C-4.7170000076293945,-27.070999145507812 10.04800033569336,-25.576000213623047 18.156999588012695,-15.638999938964844 C18.156999588012695,-15.638999938964844 18.961999893188477,-14.652999877929688 18.961999893188477,-14.652999877929688 C27.070999145507812,-4.7179999351501465 25.576000213623047,10.04699993133545 15.638999938964844,18.1560001373291 C15.638999938964844,18.1560001373291 14.654000282287598,18.961000442504883 14.654000282287598,18.961000442504883 C4.7170000076293945,27.070999145507812 -10.04699993133545,25.575000762939453 -18.156999588012695,15.640000343322754 C-18.156999588012695,15.640000343322754 -18.961000442504883,14.654000282287598 -18.961000442504883,14.654000282287598 C-27.070999145507812,4.7170000076293945 -25.576000213623047,-10.04800033569336 -15.638999938964844,-18.156999588012695z"></path></g></g><g transform="matrix(1.5,0,0,1.5,356.68798828125,891.5349731445312)" opacity="1" style="display: block;"><g opacity="1" transform="matrix(1,0,0,1,402.2080078125,48.63800048828125)"><path fill="rgb(9,9,9)" fill-opacity="1" d=" M385.8299865722656,16.128999710083008 C385.8299865722656,16.128999710083008 -385.8290100097656,16.128999710083008 -385.8290100097656,16.128999710083008 C-394.70001220703125,16.128999710083008 -401.9580078125,8.871000289916992 -401.9580078125,0 C-401.9580078125,-8.871000289916992 -394.70001220703125,-16.128999710083008 -385.8290100097656,-16.128999710083008 C-385.8290100097656,-16.128999710083008 385.8299865722656,-16.128999710083008 385.8299865722656,-16.128999710083008 C394.70098876953125,-16.128999710083008 401.9580078125,-8.871000289916992 401.9580078125,0 C401.9580078125,8.871000289916992 394.70098876953125,16.128999710083008 385.8299865722656,16.128999710083008z"></path></g><g opacity="1" transform="matrix(1,0,0,1,402.2090148925781,16.3799991607666)"><path fill="rgb(10,10,10)" fill-opacity="1" d=" M299.5929870605469,16.1299991607666 C299.5929870605469,16.1299991607666 -299.5929870605469,16.1299991607666 -299.5929870605469,16.1299991607666 C-308.4639892578125,16.1299991607666 -315.72198486328125,8.871000289916992 -315.72198486328125,0.0010000000474974513 C-315.72198486328125,0.0010000000474974513 -315.72198486328125,-0.0010000000474974513 -315.72198486328125,-0.0010000000474974513 C-315.72198486328125,-8.871000289916992 -308.4639892578125,-16.1299991607666 -299.5929870605469,-16.1299991607666 C-299.5929870605469,-16.1299991607666 299.5929870605469,-16.1299991607666 299.5929870605469,-16.1299991607666 C308.4630126953125,-16.1299991607666 315.72198486328125,-8.871000289916992 315.72198486328125,-0.0010000000474974513 C315.72198486328125,-0.0010000000474974513 315.72198486328125,0.0010000000474974513 315.72198486328125,0.0010000000474974513 C315.72198486328125,8.871000289916992 308.4630126953125,16.1299991607666 299.5929870605469,16.1299991607666z"></path></g></g><g transform="matrix(1.022997498512268,1.0970306396484375,-1.0970306396484375,1.022997498512268,1389.3892822265625,402.3936767578125)" opacity="1" style="display: block;"><g opacity="1" transform="matrix(1,0,0,1,14.109000205993652,39.01900100708008)"><path fill="rgb(9,9,9)" fill-opacity="1" d=" M-13.147000312805176,30.91200065612793 C-13.147000312805176,30.91200065612793 1.2660000324249268,-33.56700134277344 1.2660000324249268,-33.56700134277344 C1.9769999980926514,-36.74700164794922 5.163000106811523,-38.76900100708008 8.343000411987305,-38.05699920654297 C8.343000411987305,-38.05699920654297 8.659000396728516,-37.986000061035156 8.659000396728516,-37.986000061035156 C11.83899974822998,-37.2760009765625 13.859000205993652,-34.090999603271484 13.14799976348877,-30.90999984741211 C13.14799976348877,-30.90999984741211 -1.2660000324249268,33.56800079345703 -1.2660000324249268,33.56800079345703 C-1.9769999980926514,36.749000549316406 -5.160999774932861,38.76900100708008 -8.340999603271484,38.05799865722656 C-8.340999603271484,38.05799865722656 -8.656999588012695,37.987998962402344 -8.656999588012695,37.987998962402344 C-11.836999893188477,37.2760009765625 -13.859000205993652,34.09299850463867 -13.147000312805176,30.91200065612793z"></path></g></g><g transform="matrix(1.213525414466858,0.8816779851913452,-0.8816779851913452,1.213525414466858,1317.8251953125,325.02587890625)" opacity="1" style="display: block;"><g opacity="1" transform="matrix(1,0,0,1,38.119998931884766,18.09600067138672)"><path fill="rgb(9,9,9)" fill-opacity="1" d=" M-33.17300033569336,5.281000137329102 C-33.17300033569336,5.281000137329102 29.113000869750977,-16.756999969482422 29.113000869750977,-16.756999969482422 C32.185001373291016,-17.844999313354492 35.5880012512207,-16.219999313354492 36.67499923706055,-13.14799976348877 C36.67499923706055,-13.14799976348877 36.784000396728516,-12.843999862670898 36.784000396728516,-12.843999862670898 C37.87099838256836,-9.772000312805176 36.24700164794922,-6.367000102996826 33.17499923706055,-5.281000137329102 C33.17499923706055,-5.281000137329102 -29.111000061035156,16.760000228881836 -29.111000061035156,16.760000228881836 C-32.185001373291016,17.84600067138672 -35.5880012512207,16.222000122070312 -36.67499923706055,13.149999618530273 C-36.67499923706055,13.149999618530273 -36.78200149536133,12.843999862670898 -36.78200149536133,12.843999862670898 C-37.869998931884766,9.772000312805176 -36.244998931884766,6.368000030517578 -33.17300033569336,5.281000137329102z"></path></g></g><g transform="matrix(1.213525414466858,0.8816779851913452,-0.8816779851913452,1.213525414466858,1284.322021484375,342.5240783691406)" opacity="1" style="display: block;"><g opacity="1" transform="matrix(1,0,0,1,12.536999702453613,26.263999938964844)"><path fill="rgb(9,9,9)" fill-opacity="1" d=" M-11.390999794006348,17.70199966430664 C-11.390999794006348,17.70199966430664 -0.3160000145435333,-21.048999786376953 -0.3160000145435333,-21.048999786376953 C0.5799999833106995,-24.183000564575195 3.877000093460083,-26.013999938964844 7.010000228881836,-25.118000030517578 C7.010000228881836,-25.118000030517578 7.322000026702881,-25.02899932861328 7.322000026702881,-25.02899932861328 C10.456000328063965,-24.134000778198242 12.286999702453613,-20.836999893188477 11.390999794006348,-17.702999114990234 C11.390999794006348,-17.702999114990234 0.3149999976158142,21.048999786376953 0.3149999976158142,21.048999786376953 C-0.5799999833106995,24.18199920654297 -3.877000093460083,26.013999938964844 -7.011000156402588,25.118000030517578 C-7.011000156402588,25.118000030517578 -7.322000026702881,25.02899932861328 -7.322000026702881,25.02899932861328 C-10.454999923706055,24.132999420166016 -12.286999702453613,20.836000442504883 -11.390999794006348,17.70199966430664z"></path></g></g><g transform="matrix(1.022997498512268,1.0970306396484375,-1.0970306396484375,1.022997498512268,1283.864013671875,429.548095703125)" opacity="1" style="display: block;"><g opacity="1" transform="matrix(1,0,0,1,24.10099983215332,16.32200050354004)"><path fill="rgb(9,9,9)" fill-opacity="1" d=" M-19.92300033569336,4.105000019073486 C-19.92300033569336,4.105000019073486 14.253000259399414,-14.51200008392334 14.253000259399414,-14.51200008392334 C17.114999771118164,-16.07200050354004 20.73200035095215,-15.005000114440918 22.29199981689453,-12.144000053405762 C23.85099983215332,-9.281999588012695 22.78499984741211,-5.664000034332275 19.92300033569336,-4.105000019073486 C19.92300033569336,-4.105000019073486 -14.253000259399414,14.51200008392334 -14.253000259399414,14.51200008392334 C-17.114999771118164,16.07200050354004 -20.732999801635742,15.005000114440918 -22.291000366210938,12.144000053405762 C-23.85099983215332,9.281999588012695 -22.784000396728516,5.664999961853027 -19.92300033569336,4.105000019073486z"></path></g></g><g transform="matrix(-0.7531799077987671,0.65782231092453,-0.65782231092453,-0.7531799077987671,389.0852355957031,426.81512451171875)" opacity="1" style="display: block;"><g opacity="1" transform="matrix(1,0,0,1,0,0)"><path stroke-linecap="round" stroke-linejoin="round" fill-opacity="0" stroke="rgb(102,0,255)" stroke-opacity="1" stroke-width="3" d=" M-319.25,-291.5 C-319.25,-291.5 -309,-302.75 -309,-302.75 C-309,-302.75 -319.75,-312.25 -319.75,-312.25 C-319.75,-312.25 -308.25,-317.75 -308.25,-317.75 C-308.25,-317.75 -320.25,-327.75 -320.25,-327.75 C-320.25,-327.75 -308,-334 -308,-334 C-308,-334 -318.5,-343.5 -318.5,-343.5 C-318.5,-343.5 -314,-354.75 -314,-354.75"></path></g></g><g transform="matrix(1.1624020338058472,-0.9480619430541992,0.9480619430541992,1.1624020338058472,1665.3082275390625,335.06011962890625)" opacity="1" style="display: none;"><g opacity="1" transform="matrix(0.11004000157117844,0,0,0.1125200018286705,-644.5,-318.5)"><path fill="rgb(255,255,255)" fill-opacity="1" d=" M0,-51.5 C29.526649475097656,-51.5 53.5,-28.422849655151367 53.5,0 C53.5,28.422849655151367 29.526649475097656,51.5 0,51.5 C-29.526649475097656,51.5 -53.5,28.422849655151367 -53.5,0 C-53.5,-28.422849655151367 -29.526649475097656,-51.5 0,-51.5z"></path></g><g opacity="1" transform="matrix(1,0,0,1,0,0)"><path fill="url(#__lottie_element_135)" fill-opacity="1" d=" M-640.5,-318 C-640.5,-318 -638.8140258789062,-317.22698974609375 -635.9580078125,-315.9179992675781"></path><path stroke-linecap="butt" stroke-linejoin="miter" fill-opacity="0" stroke-miterlimit="4" stroke="rgb(255,255,255)" stroke-opacity="1" stroke-width="4" d=" M-640.5,-318 C-640.5,-318 -638.8140258789062,-317.22698974609375 -635.9580078125,-315.9179992675781"></path></g><g opacity="1" transform="matrix(1,0,0,1,0,0)"><path fill="url(#__lottie_element_136)" fill-opacity="1" d=" M-647,-315.5 C-647,-315.5 -649.3460083007812,-313.45098876953125 -652.9940185546875,-310.26300048828125"></path><path stroke-linecap="butt" stroke-linejoin="miter" fill-opacity="0" stroke-miterlimit="4" stroke="rgb(255,255,255)" stroke-opacity="1" stroke-width="4" d=" M-647,-315.5 C-647,-315.5 -649.3460083007812,-313.45098876953125 -652.9940185546875,-310.26300048828125"></path></g><g opacity="1" transform="matrix(1,0,0,1,0,0)"><path fill="url(#__lottie_element_137)" fill-opacity="1" d=" M-654,-321.5 C-654,-321.5 -654.5850219726562,-321.8630065917969 -655.5770263671875,-322.4779968261719"></path><path stroke-linecap="butt" stroke-linejoin="miter" fill-opacity="0" stroke-miterlimit="4" stroke="rgb(255,255,255)" stroke-opacity="1" stroke-width="4" d=" M-654,-321.5 C-654,-321.5 -654.5850219726562,-321.8630065917969 -655.5770263671875,-322.4779968261719"></path></g><g opacity="1" transform="matrix(1,0,0,1,0,0)"><path fill="url(#__lottie_element_138)" fill-opacity="1" d=" M-643.5,-325 C-643.5,-325 -643.5120239257812,-325.82000732421875 -643.531982421875,-327.2080078125"></path><path stroke-linecap="butt" stroke-linejoin="miter" fill-opacity="0" stroke-miterlimit="4" stroke="rgb(255,255,255)" stroke-opacity="1" stroke-width="4" d=" M-643.5,-325 C-643.5,-325 -643.5120239257812,-325.82000732421875 -643.531982421875,-327.2080078125"></path></g><g opacity="1" transform="matrix(1,0,0,1,0,0)"><path fill="url(#__lottie_element_139)" fill-opacity="1" d=" M-641,-309.5 C-641,-309.5 -640.81298828125,-308.8559875488281 -640.4949951171875,-307.7650146484375"></path><path stroke-linecap="butt" stroke-linejoin="miter" fill-opacity="0" stroke-miterlimit="4" stroke="rgb(255,255,255)" stroke-opacity="1" stroke-width="4" d=" M-641,-309.5 C-641,-309.5 -640.81298828125,-308.8559875488281 -640.4949951171875,-307.7650146484375"></path></g><g opacity="1" transform="matrix(1,0,0,1,0,0)"><path fill="url(#__lottie_element_140)" fill-opacity="1" d=" M-634,-321.5 C-634,-321.5 -633.43798828125,-321.885986328125 -632.4860229492188,-322.5409851074219"></path><path stroke-linecap="butt" stroke-linejoin="miter" fill-opacity="0" stroke-miterlimit="4" stroke="rgb(255,255,255)" stroke-opacity="1" stroke-width="4" d=" M-634,-321.5 C-634,-321.5 -633.43798828125,-321.885986328125 -632.4860229492188,-322.5409851074219"></path></g><g opacity="1" transform="matrix(1,0,0,1,0,0)"><path fill="url(#__lottie_element_141)" fill-opacity="1" d=" M-655,-315.5 C-655,-315.5 -655.47998046875,-315.406005859375 -656.2930297851562,-315.24798583984375"></path><path stroke-linecap="butt" stroke-linejoin="miter" fill-opacity="0" stroke-miterlimit="4" stroke="rgb(255,255,255)" stroke-opacity="1" stroke-width="4" d=" M-655,-315.5 C-655,-315.5 -655.47998046875,-315.406005859375 -656.2930297851562,-315.24798583984375"></path></g></g></g></svg>