<svg xmlns="http://www.w3.org/2000/svg" 
  version="1.1" 
  width="100" height="100"
  xmlns:xlink="http://www.w3.org/1999/xlink" 
  xmlns:svgjs="http://svgjs.dev/svgjs" 
  viewBox="0 0 800 400"
  >
  <path d="M223.75513335523715 287.9928473430968C230.44569325107045 285.6989378378884 243.8387539607059 286.0334570843077 255.1171328669559 277.24014653743274C266.3955117732059 268.44683599055776 271.8435566137007 263.5961882040994 276.622534478284 246.77420415462024C281.40151234286736 229.95222010514107 278.85670358635696 218.26762527685332 277.5185916071903 198.38709630549914C276.1804796280236 178.50656733414496 273.98215931552363 169.4504143800434 270.3501345759403 153.58422460139758C266.7181098363569 137.71803482275175 257.43493397372674 128.79330388606556 260.4934756403934 124.0143317180968C263.55201730706005 119.23535955012804 275.89373483635694 127.74193156143991 284.6870486384403 131.18279256404406C293.4803624405236 134.62365356664822 294.0657799209924 136.51134862483508 301.712134087659 140.14336766780383C309.35848825432566 143.77538671077258 311.9271853571903 145.14934016129342 320.5293337946903 148.20788182796008C329.13148223219025 151.26642349462674 332.47675566969025 151.61289729019967 342.0347048884403 154.48028173030383C351.5926541071903 157.347666170408 355.3919538304976 159.73715622167754 365.3322207575809 161.64874639094836C375.2724876846642 163.56033656021918 379.26292225497673 165.35245081803168 388.6297061091434 163.44086064876086C397.99648996331007 161.52927047949004 401.5926659073205 157.6582993084288 409.23902007398715 152.68816747249133C416.8853742406538 147.71803563655385 418.9283844945601 145.68697606624133 424.4719912653934 140.14336766780383C430.0155980362267 134.59975926936633 431.40149972893505 133.39306544205513 435.2246768122684 126.70250310481555C439.04785389560175 120.01194076757596 439.33459217685174 116.42771311661568 442.3931338435184 108.78135671199328C445.45167551018505 101.13500030737089 445.92956613518504 91.62484328171578 449.5615908747684 90.86020745814807C453.19361561435176 90.09557163458035 456.35970163323196 96.02149823726184 459.4182498103153 105.19712628901965C462.4767979873986 114.37275434077746 461.6046292048465 122.40142822485137 463.8985354548465 133.8709639507628C466.19244170484654 145.34049967667426 467.30355254469026 149.02031051855252 470.1709353571903 158.9605750042296C473.03831816969034 168.9008394899067 474.4720095759402 170.52569005549913 477.3393923884403 180.46595372737414C480.2067752009402 190.40621739924916 479.0239797907841 193.3213894166645 483.611792290784 205.55556096614367C488.19960479078406 217.78973251562283 494.25695098219035 228.82916346451606 498.8447634821903 237.81363286555774C503.4325759821903 246.79810226659941 499.5735501032841 241.74433680435982 505.117163384534 247.6702612835265C510.66077666578406 253.59618576269315 518.3310431859663 261.0035913616515 524.8304507380496 265.5914038616515C531.329858290133 270.1792163616515 528.7014175349246 268.0286792522765 535.5831362849246 269.1756323772765C542.4648550349247 270.32258550227647 546.7659292536747 272.87933517675566 557.0885073786746 270.967746635089C567.4110855036746 269.0561580934223 572.6918488500288 268.434895072589 583.9702212458621 260.215061088214C595.2485936416955 251.995227103839 605.7503831924768 242.56869735937283 609.9558779841434 232.43727483333117C614.16137277581 222.3058523072895 607.3154963109663 219.0322601848937 603.6834780817996 212.72401799739367C600.051459852633 206.41577580989366 596.753969618258 204.2055015585916 592.9307925349246 202.86738957942492C589.1076154515913 201.52927760025824 590.158989149508 202.05496444921658 585.7623355036746 206.45161809504992C581.3656818578413 210.84827174088326 573.8507494034143 217.550779065102 572.3214785700809 223.47670354426867C570.7922077367475 229.40262802343534 577.255766493258 231.93548284114368 578.5938784724246 234.22938909114367 " fill="none" stroke-width="100" stroke="url(&quot;#SvgjsLinearGradient1000&quot;)" stroke-linecap="round" stroke-dasharray="0 0" stroke-opacity="1" transform="matrix(1.1576250000000001,0,0,1.1576250000000001,-83.328115146637,-19.24658126544955)"></path>
  <defs>
    <linearGradient id="SvgjsLinearGradient1000" gradientTransform="rotate(274, 0.5, 0.5)">
      <stop stop-color="hsl(37, 91%, 55%)" offset="0"></stop>
      <stop stop-color="hsl(272, 99%, 54%)" offset="1"></stop>
    </linearGradient>
  </defs>
</svg>